<?xml version="1.0" encoding="UTF-8"?><svg id="Layer_2" xmlns="http://www.w3.org/2000/svg" viewBox="0 0 106.03 23.26"><g id="Layer_4"><path d="M11.63,23.26h12.77V.63c0-.14-.19-.19-.25-.06l-12.52,22.7Z" style="fill:#fbb040; stroke-width:0px;"/><path d="M31.41.29h6.9c3.18,0,4.77,1.02,4.77,3.07,0,.43-.07.87-.21,1.32l-2.04,7.7c-.84,3.25-3.19,4.88-7.04,4.88h-2.01l-1.63,5.99h-4.88L31.41.29ZM35.12,12.94c.51-.2.85-.63,1.03-1.3l1.48-5.53c.07-.27.11-.53.11-.77,0-.47-.18-.76-.55-.87-.36-.11-1.01-.17-1.95-.17l-2.4,8.94c1.01,0,1.77-.1,2.28-.3" style="fill:#fff; stroke-width:0px;"/><path d="M51.35,20.48c-.76.84-1.69,1.51-2.8,2.02-1.1.5-2.26.76-3.46.76-.79,0-1.57-.15-2.35-.45-.79-.3-1.43-.76-1.94-1.38-.51-.62-.76-1.38-.76-2.28,0-.44.06-.89.2-1.35l1.01-3.73h4.88l-1.02,3.81c0,.38.09.7.27.96.18.26.45.38.81.38.3,0,.64-.1,1.02-.31.38-.2.63-.53.76-.98.08-.29.13-.63.13-1.01,0-1.07-.34-2.04-1.01-2.92-.21-.29-.56-.73-1.06-1.33-.5-.6-.87-1.05-1.12-1.35-.25-.3-.48-.61-.69-.92s-.43-.68-.66-1.11c-.23-.51-.35-1.08-.35-1.7,0-.51.09-1.14.27-1.86.25-.94.76-1.85,1.54-2.75.77-.9,1.72-1.62,2.83-2.17,1.12-.55,2.28-.83,3.5-.83.84,0,1.64.16,2.4.49.76.33,1.37.82,1.85,1.47.48.65.71,1.42.71,2.32,0,.5-.06.99-.2,1.47l-.52,2h-4.88l.69-2.58c0-.77-.36-1.15-1.07-1.15-.33,0-.69.11-1.09.34-.4.22-.68.66-.86,1.3,0,.65.24,1.26.71,1.81.79.93,1.47,1.77,2.02,2.5.55.73,1.08,1.6,1.6,2.61.42.86.63,1.65.63,2.38s-.15,1.65-.45,2.85c-.25.94-.76,1.84-1.52,2.68" style="fill:#fff; stroke-width:0px;"/><polygon points="59.68 4.3 56.81 4.3 57.88 .29 68.5 .29 67.44 4.3 64.56 4.3 59.49 23.26 54.61 23.26 59.68 4.3" style="fill:#fff; stroke-width:0px;"/><path d="M75.52,20.48c-.76.84-1.69,1.51-2.8,2.02-1.1.51-2.26.76-3.46.76-.79,0-1.57-.15-2.36-.45-.79-.3-1.43-.76-1.94-1.38-.51-.62-.76-1.38-.76-2.28,0-.44.07-.89.2-1.35l3.23-12.06c.25-.93.76-1.85,1.53-2.75.77-.9,1.71-1.62,2.83-2.17,1.12-.55,2.28-.83,3.5-.83.84,0,1.64.16,2.4.49.76.33,1.37.82,1.85,1.47.48.65.71,1.42.71,2.32,0,.5-.07.99-.2,1.47l-3.21,12.06c-.25.94-.76,1.84-1.52,2.68M75.4,5.29c-.02-.26-.07-.49-.14-.67-.08-.19-.18-.33-.33-.44-.15-.11-.32-.17-.51-.18-.41,0-.8.18-1.17.55-.37.37-.67.96-.89,1.77l-2.96,11.05c-.07.36-.11.58-.11.69,0,.44.15.76.46.97.19.13.42.19.65.18.36-.01.72-.17,1.08-.46.37-.31.63-.72.77-1.23l3.01-11.24c.09-.39.14-.72.14-.98" style="fill:#fff; stroke-width:0px;"/><polygon points="82.63 .29 87.51 .29 88.59 9.19 90.96 .29 94.99 .29 88.84 23.26 84.82 23.26 84.5 11.6 81.37 23.26 76.49 23.26 82.63 .29" style="fill:#fff; stroke-width:0px;"/><polygon points="95.98 .29 106.03 .29 104.96 4.3 99.8 4.3 98.45 9.4 103.61 9.4 102.56 13.42 97.39 13.42 95.81 19.25 100.98 19.25 99.89 23.26 89.84 23.26 95.98 .29" style="fill:#fff; stroke-width:0px;"/><path d="M15.88,2.36c-.26-.51-.62-.94-1.09-1.29-.46-.35-.99-.61-1.59-.78-.6-.17-1.24-.26-1.92-.26-1.07,0-2.16.22-3.25.65-1.09.44-2.05,1.08-2.87,1.94-.82.86-1.4,1.9-1.74,3.13L.2,17.8c-.13.46-.2.91-.2,1.35,0,.9.25,1.66.76,2.28.51.62,1.16,1.08,1.94,1.38.79.3,1.57.45,2.36.45,1.21,0,2.36-.25,3.46-.76,1.1-.51,2.04-1.18,2.8-2.02.76-.84,1.27-1.73,1.52-2.68l1.33-4.56h-4.88l-1.25,4.27c-.18.52-.45.94-.81,1.25-.36.31-.73.47-1.09.47-.66,0-1-.43-1-1.29,0-.16.02-.35.06-.57l2.96-11.05c.33-.88.65-1.48.97-1.81.32-.33.68-.49,1.09-.49.64,0,.95.43.95,1.29,0,.37-.04.69-.11.95l-.88,3.6h4.88l.99-4.12c.15-.62.22-1.15.22-1.58,0-.69-.13-1.29-.39-1.81" style="fill:#fff; stroke-width:0px;"/></g></svg>